<svg display="none" xmlns="http://www.w3.org/2000/svg">

    <symbol id="linkedin" viewBox="0 0 16 16">
        <g>
            <path fill="#0A66C2" d="M12.225 12.225h-1.778V9.44c0-.664-.012-1.519-.925-1.519-.926 0-1.068.724-1.068 1.47v2.834H6.676V6.498h1.707v.783h.024c.348-.594.996-.95 1.684-.925 1.802 0 2.135 1.185 2.135 2.728l-.001 3.14zM4.67 5.715a1.037 1.037 0 01-1.032-1.031c0-.566.466-1.032 1.032-1.032.566 0 1.031.466 1.032 1.032 0 .566-.466 1.032-1.032 1.032zm.889 6.51h-1.78V6.498h1.78v5.727zM13.11 2H2.885A.88.88 0 002 2.866v10.268a.88.88 0 00.885.866h10.226a.882.882 0 00.889-.866V2.865a.88.88 0 00-.889-.864z"/>
        </g>
    </symbol>

    <symbol id="telegram" viewBox="0 0 260 260">
        <g >
            <path d="M128,0 C57.307,0 0,57.307 0,128 L0,128 C0,198.693 57.307,256 128,256 L128,256 C198.693,256 256,198.693 256,128 L256,128 C256,57.307 198.693,0 128,0 L128,0 Z" fill="#40B3E0"></path>
            <path d="M190.2826,73.6308 L167.4206,188.8978 C167.4206,188.8978 164.2236,196.8918 155.4306,193.0548 L102.6726,152.6068 L83.4886,143.3348 L51.1946,132.4628 C51.1946,132.4628 46.2386,130.7048 45.7586,126.8678 C45.2796,123.0308 51.3546,120.9528 51.3546,120.9528 L179.7306,70.5928 C179.7306,70.5928 190.2826,65.9568 190.2826,73.6308" fill="#FFFFFF"></path>
            <path d="M98.6178,187.6035 C98.6178,187.6035 97.0778,187.4595 95.1588,181.3835 C93.2408,175.3085 83.4888,143.3345 83.4888,143.3345 L161.0258,94.0945 C161.0258,94.0945 165.5028,91.3765 165.3428,94.0945 C165.3428,94.0945 166.1418,94.5735 163.7438,96.8115 C161.3458,99.0505 102.8328,151.6475 102.8328,151.6475" fill="#D2E5F1"></path>
            <path d="M122.9015,168.1154 L102.0335,187.1414 C102.0335,187.1414 100.4025,188.3794 98.6175,187.6034 L102.6135,152.2624" fill="#B5CFE4"></path>
        </g>
    </symbol>

    <symbol id="react" viewBox="0 0 32 32">
        <g >
            <path d="M18.6789 15.9759C18.6789 14.5415 17.4796 13.3785 16 13.3785C14.5206 13.3785 13.3211 14.5415 13.3211 15.9759C13.3211 17.4105 14.5206 18.5734 16 18.5734C17.4796 18.5734 18.6789 17.4105 18.6789 15.9759Z" fill="#53C1DE"/>
            <path fill-rule="evenodd" clip-rule="evenodd" d="M24.7004 11.1537C25.2661 8.92478 25.9772 4.79148 23.4704 3.39016C20.9753 1.99495 17.7284 4.66843 16.0139 6.27318C14.3044 4.68442 10.9663 2.02237 8.46163 3.42814C5.96751 4.82803 6.73664 8.8928 7.3149 11.1357C4.98831 11.7764 1 13.1564 1 15.9759C1 18.7874 4.98416 20.2888 7.29698 20.9289C6.71658 23.1842 5.98596 27.1909 8.48327 28.5877C10.9973 29.9932 14.325 27.3945 16.0554 25.7722C17.7809 27.3864 20.9966 30.0021 23.4922 28.6014C25.9956 27.1963 25.3436 23.1184 24.7653 20.8625C27.0073 20.221 31 18.7523 31 15.9759C31 13.1835 26.9903 11.7923 24.7004 11.1537ZM24.4162 19.667C24.0365 18.5016 23.524 17.2623 22.8971 15.9821C23.4955 14.7321 23.9881 13.5088 24.3572 12.3509C26.0359 12.8228 29.7185 13.9013 29.7185 15.9759C29.7185 18.07 26.1846 19.1587 24.4162 19.667ZM22.85 27.526C20.988 28.571 18.2221 26.0696 16.9478 24.8809C17.7932 23.9844 18.638 22.9422 19.4625 21.7849C20.9129 21.6602 22.283 21.4562 23.5256 21.1777C23.9326 22.7734 24.7202 26.4763 22.85 27.526ZM9.12362 27.5111C7.26143 26.47 8.11258 22.8946 8.53957 21.2333C9.76834 21.4969 11.1286 21.6865 12.5824 21.8008C13.4123 22.9332 14.2816 23.9741 15.1576 24.8857C14.0753 25.9008 10.9945 28.557 9.12362 27.5111ZM2.28149 15.9759C2.28149 13.874 5.94207 12.8033 7.65904 12.3326C8.03451 13.5165 8.52695 14.7544 9.12123 16.0062C8.51925 17.2766 8.01977 18.5341 7.64085 19.732C6.00369 19.2776 2.28149 18.0791 2.28149 15.9759ZM9.1037 4.50354C10.9735 3.45416 13.8747 6.00983 15.1159 7.16013C14.2444 8.06754 13.3831 9.1006 12.5603 10.2265C11.1494 10.3533 9.79875 10.5569 8.55709 10.8297C8.09125 9.02071 7.23592 5.55179 9.1037 4.50354ZM20.3793 11.5771C21.3365 11.6942 22.2536 11.85 23.1147 12.0406C22.8562 12.844 22.534 13.6841 22.1545 14.5453C21.6044 13.5333 21.0139 12.5416 20.3793 11.5771ZM16.0143 8.0481C16.6054 8.66897 17.1974 9.3623 17.7798 10.1145C16.5985 10.0603 15.4153 10.0601 14.234 10.1137C14.8169 9.36848 15.414 8.67618 16.0143 8.0481ZM9.8565 14.5444C9.48329 13.6862 9.16398 12.8424 8.90322 12.0275C9.75918 11.8418 10.672 11.69 11.623 11.5748C10.9866 12.5372 10.3971 13.5285 9.8565 14.5444ZM11.6503 20.4657C10.6679 20.3594 9.74126 20.2153 8.88556 20.0347C9.15044 19.2055 9.47678 18.3435 9.85796 17.4668C10.406 18.4933 11.0045 19.4942 11.6503 20.4657ZM16.0498 23.9915C15.4424 23.356 14.8365 22.6531 14.2448 21.8971C15.4328 21.9423 16.6231 21.9424 17.811 21.891C17.2268 22.6608 16.6369 23.3647 16.0498 23.9915ZM22.1667 17.4222C22.5677 18.3084 22.9057 19.1657 23.1742 19.9809C22.3043 20.1734 21.3652 20.3284 20.3757 20.4435C21.015 19.4607 21.6149 18.4536 22.1667 17.4222ZM18.7473 20.5941C16.9301 20.72 15.1016 20.7186 13.2838 20.6044C12.2509 19.1415 11.3314 17.603 10.5377 16.0058C11.3276 14.4119 12.2404 12.8764 13.2684 11.4158C15.0875 11.2825 16.9178 11.2821 18.7369 11.4166C19.7561 12.8771 20.6675 14.4086 21.4757 15.9881C20.6771 17.5812 19.7595 19.1198 18.7473 20.5941ZM22.8303 4.4666C24.7006 5.51254 23.8681 9.22726 23.4595 10.8426C22.2149 10.5641 20.8633 10.3569 19.4483 10.2281C18.6239 9.09004 17.7698 8.05518 16.9124 7.15949C18.1695 5.98441 20.9781 3.43089 22.8303 4.4666Z" fill="#53C1DE"/>
        </g>
    </symbol>

    <symbol id="figma" viewBox="0 0 24 24">
        <g fill="none" fill-rule="evenodd" transform="translate(4)">
            <circle cx="12" cy="12" r="4" fill="#19BCFE"/>
            <path fill="#09CF83" d="M4,24 C6.209139,24 8,22.209139 8,20 C8,19.3969461 8,18.0636128 8,16 C6.20303877,16 4.86970543,16 4,16 C1.790861,16 0,17.790861 0,20 C0,22.209139 1.790861,24 4,24 Z"/>
            <path fill="#A259FF" d="M4,16 C4.73637967,16 6.069713,16 8,16 L8,8 C6.069713,8 4.73637967,8 4,8 C1.790861,8 0,9.790861 0,12 C0,14.209139 1.790861,16 4,16 Z"/>
            <path fill="#F24E1E" d="M4,8 C4.73637967,8 6.069713,8 8,8 L8,0 C6.069713,0 4.73637967,0 4,0 C1.790861,0 0,1.790861 0,4 C0,6.209139 1.790861,8 4,8 Z"/>
            <path fill="#FF7262" d="M12,8 L8,8 L8,8 L8,0 L12,0 L12,0 C14.209139,0 16,1.790861 16,4 C16,6.209139 14.209139,8 12,8 Z"/>
        </g>
    </symbol>


    <symbol id="ts" viewBox="0 0 256 256">
        <polygon fill="#007ACC" transform="translate(128.000000, 128.000000) scale(1, -1) translate(-128.000000, -128.000000) " points="0 128 0 0 128 0 256 0 256 128 256 256 128 256 0 256">

        </polygon>
		<path d="M146.658132,223.436863 L146.739401,212.953054 L130.079084,212.953054 L113.418767,212.953054 L113.418767,165.613371 L113.418767,118.273689 L101.63464,118.273689 L89.8505126,118.273689 L89.8505126,165.613371 L89.8505126,212.953054 L73.1901951,212.953054 L56.5298776,212.953054 L56.5298776,223.233689 C56.5298776,228.922577 56.6517824,233.676863 56.8143221,233.798768 C56.9362269,233.961308 77.2130522,234.042577 101.797179,234.001943 L146.536227,233.880038 L146.658132,223.436863 Z" fill="#FFFFFF" transform="translate(101.634640, 176.142993) rotate(-180.000000) translate(-101.634640, -176.142993) ">

        </path>
		<path d="M206.566631,234.272145 C213.068219,232.646748 218.025679,229.761668 222.57679,225.048018 C224.933616,222.528653 228.428219,217.936907 228.712663,216.839764 C228.793933,216.514684 217.659965,209.037859 210.914568,204.852462 C210.670758,204.689922 209.69552,205.74643 208.598377,207.371827 C205.306949,212.166748 201.852981,214.239129 196.570441,214.604843 C188.809171,215.133097 183.811076,211.069605 183.851711,204.283573 C183.851711,202.292462 184.136155,201.114049 184.948854,199.488653 C186.65552,195.953414 189.825044,193.840399 199.7806,189.533097 C218.106949,181.649922 225.949489,176.448653 230.825679,169.053097 C236.270758,160.804208 237.489806,147.638494 233.792028,137.845478 C229.728536,127.199129 219.651076,119.966113 205.469489,117.568653 C201.080917,116.796589 190.678377,116.918494 185.964727,117.771827 C175.684092,119.600399 165.931711,124.679764 159.917743,131.343891 C157.560917,133.944526 152.969171,140.730557 153.253616,141.218176 C153.37552,141.380716 154.432028,142.030875 155.610441,142.721668 C156.748219,143.371827 161.05552,145.850557 165.119012,148.207383 L172.473933,152.474049 L174.01806,150.198494 C176.171711,146.907065 180.885362,142.396589 183.729806,140.893097 C191.897425,136.585795 203.112663,137.195319 208.639012,142.15278 C210.995838,144.30643 211.971076,146.541351 211.971076,149.83278 C211.971076,152.799129 211.605362,154.099446 210.061235,156.334367 C208.070123,159.178811 204.006631,161.576272 192.466314,166.574367 C179.259965,172.263256 173.571076,175.798494 168.369806,181.406113 C165.362822,184.656907 162.518377,189.858176 161.339965,194.206113 C160.364727,197.822621 160.120917,206.884208 160.892981,210.541351 C163.61552,223.300716 173.245996,232.199764 187.143139,234.841034 C191.653616,235.694367 202.137425,235.369287 206.566631,234.272145 Z" fill="#FFFFFF" transform="translate(194.578507, 176.190240) scale(1, -1) translate(-194.578507, -176.190240) ">

        </path>
    </symbol>

    <symbol id="docker" viewBox="0 -35.5 256 256">
        <path d="M250.715745,70.4971666 C244.951102,66.4973277 231.740464,64.997388 221.412146,66.9973071 C220.211179,56.9977092 214.68673,48.2480609 205.078993,40.4983724 L199.554544,36.4985331 L195.711449,42.248302 C190.90758,49.7480006 188.505646,60.2475786 189.226226,70.2471769 C189.46642,73.7470364 190.667387,79.9967847 194.270289,85.496564 C190.90758,87.4964838 183.941971,89.996383 174.814621,89.996383 L1.15476998,89.996383 L0.674383104,91.9963028 C-1.00697093,101.9959 -1.00697093,133.244645 18.6888904,157.243681 C33.5808831,175.492947 55.6786788,184.742575 84.7420842,184.742575 C147.672763,184.742575 194.270289,154.493791 216.127891,99.7459909 C224.774854,99.9959813 243.269748,99.7459909 252.637292,80.996745 C252.877486,80.4967649 253.357872,79.4968046 255.039227,75.7469554 L256,73.7470364 L250.715745,70.4971666 L250.715745,70.4971666 Z M139.986573,0 L113.565295,0 L113.565295,24.9989952 L139.986573,24.9989952 L139.986573,0 L139.986573,0 Z M139.986573,29.9987943 L113.565295,29.9987943 L113.565295,54.9977896 L139.986573,54.9977896 L139.986573,29.9987943 L139.986573,29.9987943 Z M108.761427,29.9987943 L82.3401495,29.9987943 L82.3401495,54.9977896 L108.761427,54.9977896 L108.761427,29.9987943 L108.761427,29.9987943 Z M77.5362814,29.9987943 L51.1150037,29.9987943 L51.1150037,54.9977896 L77.5362814,54.9977896 L77.5362814,29.9987943 L77.5362814,29.9987943 Z M46.311135,59.9975886 L19.8898576,59.9975886 L19.8898576,84.9965839 L46.311135,84.9965839 L46.311135,59.9975886 L46.311135,59.9975886 Z M77.5362814,59.9975886 L51.1150037,59.9975886 L51.1150037,84.9965839 L77.5362814,84.9965839 L77.5362814,59.9975886 L77.5362814,59.9975886 Z M108.761427,59.9975886 L82.3401495,59.9975886 L82.3401495,84.9965839 L108.761427,84.9965839 L108.761427,59.9975886 L108.761427,59.9975886 Z M139.986573,59.9975886 L113.565295,59.9975886 L113.565295,84.9965839 L139.986573,84.9965839 L139.986573,59.9975886 L139.986573,59.9975886 Z M171.211719,59.9975886 L144.790441,59.9975886 L144.790441,84.9965839 L171.211719,84.9965839 L171.211719,59.9975886 L171.211719,59.9975886 Z" fill="#2396ED" fill-rule="nonzero">

        </path>
    </symbol>

    <symbol id="nextjs" viewBox="0 0 24 24">
        <g clip-path="url(#clip0)">
            <path d="M11.2141 0.00645944C11.1625 0.0111515 10.9982 0.0275738 10.8504 0.039304C7.44164 0.346635 4.24868 2.18593 2.22639 5.01291C1.10029 6.58476 0.380059 8.36775 0.107918 10.2563C0.0117302 10.9156 0 11.1103 0 12.0041C0 12.898 0.0117302 13.0927 0.107918 13.7519C0.760117 18.2587 3.96716 22.0452 8.31672 23.4481C9.0956 23.6991 9.91672 23.8704 10.8504 23.9736C11.2141 24.0135 12.7859 24.0135 13.1496 23.9736C14.7613 23.7953 16.1267 23.3965 17.4733 22.7091C17.6798 22.6035 17.7196 22.5754 17.6915 22.5519C17.6727 22.5378 16.793 21.3578 15.7372 19.9314L13.8182 17.339L11.4135 13.7801C10.0903 11.8235 9.00176 10.2235 8.99238 10.2235C8.98299 10.2211 8.97361 11.8024 8.96891 13.7331C8.96188 17.1138 8.95953 17.2499 8.9173 17.3296C8.85631 17.4446 8.80938 17.4915 8.71085 17.5431C8.63578 17.5807 8.57009 17.5877 8.21584 17.5877H7.80997L7.70205 17.5197C7.63167 17.4751 7.58006 17.4164 7.54487 17.3484L7.4956 17.2428L7.50029 12.539L7.50733 7.83285L7.58006 7.74136C7.6176 7.69209 7.69736 7.62875 7.75367 7.59825C7.84985 7.55133 7.88739 7.54664 8.29325 7.54664C8.77185 7.54664 8.85161 7.5654 8.97595 7.70147C9.01114 7.73901 10.3132 9.7003 11.871 12.0628C13.4287 14.4252 15.5589 17.651 16.6053 19.2346L18.5056 22.1132L18.6018 22.0499C19.4534 21.4962 20.3543 20.7079 21.0674 19.8868C22.5853 18.1437 23.5636 16.0182 23.8921 13.7519C23.9883 13.0927 24 12.898 24 12.0041C24 11.1103 23.9883 10.9156 23.8921 10.2563C23.2399 5.74957 20.0328 1.96306 15.6833 0.560125C14.9161 0.311445 14.0997 0.140184 13.1848 0.036958C12.9595 0.0134976 11.4088 -0.0123089 11.2141 0.00645944ZM16.1267 7.26511C16.2393 7.32142 16.3308 7.42933 16.3636 7.54194C16.3824 7.60294 16.3871 8.90734 16.3824 11.8469L16.3754 16.0651L15.6317 14.9249L14.8856 13.7848V10.7185C14.8856 8.73608 14.895 7.62171 14.9091 7.56775C14.9466 7.43637 15.0287 7.33315 15.1413 7.27215C15.2375 7.22288 15.2727 7.21819 15.6411 7.21819C15.9883 7.21819 16.0493 7.22288 16.1267 7.26511Z" fill="#000000"/>
        </g>
        <defs>
            <clipPath id="clip0">
                <rect width="24" height="24" fill="white"/>
            </clipPath>
        </defs>
    </symbol>

    <symbol id="nodejs" viewBox="-16.5 0 289 289">
        <path d="M127.999999,288.463771 C124.024844,288.463771 120.314699,287.403728 116.869564,285.548656 L81.6231884,264.612838 C76.32298,261.697724 78.9730854,260.637682 80.5631458,260.107661 C87.7184259,257.72257 89.0434775,257.192547 96.4637688,252.952381 C97.2587979,252.422361 98.3188405,252.687372 99.1138718,253.217392 L126.144927,269.383024 C127.20497,269.913045 128.530021,269.913045 129.325053,269.383024 L235.064182,208.165634 C236.124225,207.635611 236.654245,206.575571 236.654245,205.250519 L236.654245,83.0807467 C236.654245,81.7556929 236.124225,80.6956526 235.064182,80.1656324 L129.325053,19.2132506 C128.26501,18.6832305 126.939959,18.6832305 126.144927,19.2132506 L20.4057954,80.1656324 C19.3457551,80.6956526 18.8157349,82.0207041 18.8157349,83.0807467 L18.8157349,205.250519 C18.8157349,206.31056 19.3457551,207.635611 20.4057954,208.165634 L49.2919247,224.861286 C64.9275364,232.811595 74.7329196,223.536234 74.7329196,214.260871 L74.7329196,93.681159 C74.7329196,92.0910985 76.0579711,90.5010358 77.9130428,90.5010358 L91.4285716,90.5010358 C93.0186343,90.5010358 94.6086948,91.8260873 94.6086948,93.681159 L94.6086948,214.260871 C94.6086948,235.196689 83.2132512,247.387164 63.3374737,247.387164 C57.2422362,247.387164 52.4720502,247.387164 38.9565214,240.761906 L11.1304347,224.861286 C4.24016581,220.886129 5.68434189e-14,213.46584 5.68434189e-14,205.515528 L5.68434189e-14,83.3457557 C5.68434189e-14,75.3954465 4.24016581,67.9751552 11.1304347,64.0000006 L116.869564,2.78260752 C123.494824,-0.927535841 132.505176,-0.927535841 139.130436,2.78260752 L244.869565,64.0000006 C251.759834,67.9751552 256,75.3954465 256,83.3457557 L256,205.515528 C256,213.46584 251.759834,220.886129 244.869565,224.861286 L139.130436,286.078676 C135.685299,287.668739 131.710145,288.463771 127.999999,288.463771 L127.999999,288.463771 Z M160.596274,204.455488 C114.219461,204.455488 104.679089,183.254659 104.679089,165.233955 C104.679089,163.643893 106.004141,162.053832 107.859212,162.053832 L121.639752,162.053832 C123.229813,162.053832 124.554864,163.113872 124.554864,164.703935 C126.674947,178.749484 132.770187,185.639753 160.861283,185.639753 C183.122154,185.639753 192.662526,180.604556 192.662526,168.67909 C192.662526,161.788821 190.012423,156.753624 155.296065,153.308489 C126.409938,150.393375 108.389235,144.033126 108.389235,120.977226 C108.389235,99.5113875 126.409938,86.7908901 156.621119,86.7908901 C190.542443,86.7908901 207.238095,98.4513472 209.358178,123.89234 C209.358178,124.687371 209.093167,125.482403 208.563147,126.277434 C208.033127,126.807454 207.238095,127.337474 206.443064,127.337474 L192.662526,127.337474 C191.337475,127.337474 190.012423,126.277434 189.747412,124.952382 C186.567289,110.376813 178.351966,105.606625 156.621119,105.606625 C132.240165,105.606625 129.325053,114.086957 129.325053,120.447205 C129.325053,128.132506 132.770187,130.5176 165.631471,134.757766 C198.227744,138.997931 213.598344,145.093169 213.598344,167.884058 C213.333333,191.20497 194.252589,204.455488 160.596274,204.455488 L160.596274,204.455488 Z" fill="#539E43">

        </path>
    </symbol>

    <symbol id="email" viewBox="0 0 29.2083 26.2876" fill="none">
    	<path d="M29.2083 10.1936L29.2083 23.3667C29.2083 24.9731 27.894 26.2876 26.2875 26.2876L2.92084 26.2876C1.31439 26.2876 0 24.9731 0 23.3667L0 5.84155C0 4.23511 1.31439 2.9209 2.92084 2.9209L17.671 2.9209C17.5834 3.38818 17.525 3.88477 17.525 4.38135C17.525 6.54272 18.4742 8.45581 19.9639 9.79932L14.6042 13.1438L2.92084 5.84155L2.92084 8.76245L14.6042 16.0647L22.3444 11.2161C23.133 11.5081 23.9508 11.6833 24.8271 11.6833C26.4774 11.6833 27.9816 11.1138 29.2083 10.1936ZM20.4459 4.38135C20.4459 6.80542 22.4028 8.76245 24.8271 8.76245C27.2514 8.76245 29.2083 6.80542 29.2083 4.38135C29.2083 1.95703 27.2514 0 24.8271 0C22.4028 0 20.4459 1.95703 20.4459 4.38135Z" fill="#FCC028" fill-opacity="1.000000" fill-rule="nonzero"/>
    </symbol>

    <symbol id="address" viewBox="0 0 34.0764 26.2126" fill="none">
    	<path  d="M0 0L0 26.2126L34.0764 26.2126L34.0764 0L0 0ZM2.62128 2.62134L31.4551 2.62134L31.4551 23.5913L26.9911 23.5913C26.8889 23.4119 26.9348 23.1667 26.7853 23.0173C26.2913 22.522 25.5875 22.2808 24.902 22.2808C24.2165 22.2808 23.514 22.522 23.0173 23.0186C22.8692 23.1667 22.915 23.4119 22.8128 23.5913L11.2635 23.5913C11.1613 23.4119 11.2072 23.1667 11.0591 23.0173C10.561 22.522 9.85986 22.2808 9.17444 22.2808C8.48895 22.2808 7.78644 22.522 7.28973 23.0186C7.1416 23.1667 7.1875 23.4119 7.08527 23.5913L2.62128 23.5913L2.62128 2.62134ZM11.7957 5.24243C8.91229 5.24243 6.55316 7.60156 6.55316 10.4851C6.55316 11.9438 7.17834 13.2598 8.15082 14.2124C7.25909 14.8149 6.52802 15.626 6.02118 16.5752C5.51434 17.5247 5.24701 18.5833 5.24249 19.6594L7.86377 19.6594C7.86377 18.6167 8.27802 17.6165 9.01538 16.8792C9.75281 16.1418 10.7529 15.7275 11.7957 15.7275C12.8385 15.7275 13.8386 16.1418 14.5759 16.8792C15.3133 17.6165 15.7275 18.6167 15.7275 19.6594L18.3488 19.6594C18.3443 18.5833 18.077 17.5247 17.5702 16.5752C17.0633 15.626 16.3323 14.8149 15.4406 14.2124C16.413 13.2598 17.0382 11.9451 17.0382 10.4851C17.0382 7.60156 14.6791 5.24243 11.7957 5.24243ZM11.7957 7.86377C13.2596 7.86377 14.4169 9.021 14.4169 10.4851C14.4169 11.949 13.2596 13.1062 11.7957 13.1062C10.3317 13.1062 9.17444 11.949 9.17444 10.4851C9.17444 9.021 10.3317 7.86377 11.7957 7.86377ZM20.9701 9.17432L20.9701 11.7957L28.8339 11.7957L28.8339 9.17432L20.9701 9.17432ZM20.9701 14.417L20.9701 17.0381L28.8339 17.0381L28.8339 14.417L20.9701 14.417Z" fill="#FCC028" fill-opacity="1.000000" fill-rule="nonzero"/>
    </symbol>

    <symbol id="phone" viewBox="0 0 34.0764 34.0764" fill="none">
    	<path  d="M23.4275 2.12988L10.6489 2.12988C10.084 2.12988 9.5423 2.35425 9.14288 2.75366C8.74347 3.15308 8.5191 3.69458 8.5191 4.25952L8.5191 17.0381C8.5191 17.3206 8.40692 17.5916 8.20721 17.7913C8.00751 17.991 7.73663 18.103 7.45422 18.103C7.17181 18.103 6.90094 17.991 6.70123 17.7913C6.50153 17.5916 6.38934 17.3206 6.38934 17.0381L6.38934 4.25952C6.38934 3.12988 6.83807 2.04639 7.6369 1.24756C8.43573 0.44873 9.51917 0 10.6489 0L23.4275 0C24.5573 0 25.6406 0.44873 26.4395 1.24756C27.2383 2.04639 27.6871 3.12988 27.6871 4.25952L27.6871 17.0381C27.6871 17.3206 27.5749 17.5916 27.3752 17.7913C27.1755 17.991 26.9046 18.103 26.6222 18.103C26.3398 18.103 26.0689 17.991 25.8692 17.7913C25.6695 17.5916 25.5573 17.3206 25.5573 17.0381L25.5573 4.25952C25.5573 3.69458 25.3329 3.15308 24.9335 2.75366C24.5341 2.35425 23.9924 2.12988 23.4275 2.12988ZM25.5573 29.8169C25.5573 30.3816 25.3329 30.9233 24.9335 31.3228C24.5341 31.7222 23.9924 31.9465 23.4275 31.9465L10.6489 31.9465C10.084 31.9465 9.5423 31.7222 9.14288 31.3228C8.74347 30.9233 8.5191 30.3816 8.5191 29.8169L8.5191 25.5574C8.5191 25.2749 8.40692 25.0039 8.20721 24.8042C8.00751 24.6045 7.73663 24.4924 7.45422 24.4924C7.17181 24.4924 6.90094 24.6045 6.70123 24.8042C6.50153 25.0039 6.38934 25.2749 6.38934 25.5574L6.38934 29.8169C6.38934 30.9465 6.83807 32.03 7.6369 32.8289C8.43573 33.6277 9.51917 34.0764 10.6489 34.0764L23.4275 34.0764C24.5573 34.0764 25.6406 33.6277 26.4395 32.8289C27.2383 32.03 27.6871 30.9465 27.6871 29.8169L27.6871 25.5574C27.6871 25.2749 27.5749 25.0039 27.3752 24.8042C27.1755 24.6045 26.9046 24.4924 26.6222 24.4924C26.3398 24.4924 26.0689 24.6045 25.8692 24.8042C25.6695 25.0039 25.5573 25.2749 25.5573 25.5574L25.5573 29.8169ZM3.64832 16.9402C3.90472 16.8218 4.1037 16.6064 4.20135 16.3416C4.29901 16.0764 4.28735 15.7834 4.16901 15.5271C4.11041 15.4001 4.0274 15.2859 3.92468 15.1912C3.82196 15.0962 3.70154 15.0225 3.57031 14.9741C3.3053 14.8765 3.01239 14.8879 2.75592 15.0063C2.01691 15.3472 1.36304 15.7476 0.877441 16.2205C0.391907 16.7017 0 17.3342 0 18.103C0 19.2659 0.868958 20.105 1.75281 20.6609C2.68988 21.2529 3.97418 21.7471 5.46924 22.1433C8.47223 22.9441 12.5614 23.4275 17.0382 23.4275C17.249 23.4275 17.4578 23.4275 17.6644 23.4233L15.2194 25.8682C15.1204 25.9673 15.0418 26.0847 14.9882 26.2141C14.9346 26.3435 14.9071 26.4822 14.9071 26.6221C14.9071 26.7622 14.9346 26.9009 14.9882 27.0303C15.0418 27.1597 15.1204 27.2771 15.2194 27.3762C15.4193 27.5762 15.6906 27.6885 15.9733 27.6885C16.1133 27.6885 16.252 27.6609 16.3813 27.6072C16.5107 27.5537 16.6282 27.4751 16.7272 27.3762L20.9868 23.1165C21.0859 23.0176 21.1647 22.9001 21.2183 22.7708C21.272 22.6414 21.2996 22.5027 21.2996 22.3625C21.2996 22.2227 21.272 22.084 21.2183 21.9546C21.1647 21.8252 21.0859 21.7075 20.9868 21.6086L16.7272 17.3491C16.6282 17.2502 16.5107 17.1716 16.3813 17.1179C16.252 17.0645 16.1133 17.0369 15.9733 17.0369C15.8333 17.0369 15.6946 17.0645 15.5653 17.1179C15.4359 17.1716 15.3184 17.2502 15.2194 17.3491C15.1204 17.4482 15.0418 17.5657 14.9882 17.6951C14.9346 17.8245 14.9071 17.9631 14.9071 18.103C14.9071 18.2432 14.9346 18.3818 14.9882 18.5112C15.0418 18.6404 15.1204 18.7581 15.2194 18.8569L17.658 21.2935L17.0382 21.2979C12.6935 21.2979 8.79596 20.8271 6.01874 20.0859C4.62158 19.7131 3.56738 19.2893 2.888 18.8613C2.15533 18.3992 2.12976 18.116 2.12976 18.103C2.12976 18.0967 2.12976 17.9775 2.36829 17.741C2.61322 17.5024 3.02856 17.2256 3.64618 16.9402L3.64832 16.9402ZM31.3204 15.0063C31.064 14.8879 30.7711 14.8765 30.506 14.9741C30.241 15.0718 30.0257 15.2708 29.9073 15.5271C29.789 15.7834 29.7774 16.0764 29.8751 16.3416C29.9727 16.6064 30.1716 16.8218 30.4281 16.9402C31.05 17.2256 31.4631 17.5024 31.7059 17.7432C31.9466 17.9775 31.9466 18.0967 31.9466 18.103C31.9466 18.1094 31.9466 18.2415 31.6697 18.5015C31.3886 18.7612 30.92 19.0552 30.2279 19.3533C28.8542 19.9497 26.8288 20.467 24.3433 20.8164C24.0676 20.8604 23.8201 21.0107 23.6542 21.2354C23.4882 21.46 23.4172 21.7407 23.4563 22.0171C23.4954 22.2937 23.6415 22.5437 23.8632 22.7134C24.0849 22.8833 24.3644 22.9592 24.6415 22.9248C27.2228 22.5627 29.4548 22.009 31.0734 21.3105C31.8828 20.9612 32.5919 20.5503 33.118 20.0603C33.6419 19.5725 34.0764 18.9167 34.0764 18.103C34.0764 17.332 33.6845 16.6975 33.1989 16.2224C32.7133 15.7476 32.0595 15.3472 31.3204 15.0063ZM15.9733 4.25952C15.6909 4.25952 15.42 4.37183 15.2203 4.57153C15.0206 4.77124 14.9084 5.04199 14.9084 5.32446C14.9084 5.60693 15.0206 5.87769 15.2203 6.07739C15.42 6.2771 15.6909 6.3894 15.9733 6.3894L18.1031 6.3894C18.3855 6.3894 18.6564 6.2771 18.8561 6.07739C19.0558 5.87769 19.168 5.60693 19.168 5.32446C19.168 5.04199 19.0558 4.77124 18.8561 4.57153C18.6564 4.37183 18.3855 4.25952 18.1031 4.25952L15.9733 4.25952Z" fill="#FCC028" fill-opacity="1.000000" fill-rule="evenodd"/>
    </symbol>

    <!-- <g id="blanc">

    </g> -->
</svg>