<svg width="50" height="50" viewBox="0 0 50 50" fill="none" xmlns="http://www.w3.org/2000/svg">
    <g id="react">
        <path d="M93.1056 32.7027C91.9031 32.2887 90.6904 31.9051 89.4687 31.5523C89.6739 30.7106 89.8628 29.8792 90.0305 29.0623C92.7838 15.6483 90.9839 4.84178 84.8361 1.28375C78.9416 -2.12722 69.3016 1.42949 59.5659 9.93342C58.6064 10.773 57.6682 11.6368 56.7521 12.524C56.1389 11.934 55.5149 11.3556 54.8803 10.7888C44.6767 1.69616 34.4493 -2.13608 28.3081 1.43215C22.4189 4.85374 20.675 15.0127 23.1538 27.7254C23.4004 28.9844 23.6788 30.237 23.9888 31.4819C22.5411 31.8947 21.1442 32.3342 19.8073 32.8019C7.84441 36.9881 0.204742 43.5483 0.204742 50.3529C0.204742 57.3808 8.40627 64.43 20.8661 68.7043C21.8763 69.0495 22.8948 69.3692 23.9209 69.6634C23.5876 71.0042 23.2918 72.354 23.0337 73.7114C20.6706 86.2035 22.516 96.1223 28.3893 99.5222C34.4555 103.033 44.637 99.4247 54.5506 90.7268C55.3545 90.0196 56.1407 89.2925 56.9084 88.546C57.9004 89.5066 58.9189 90.4393 59.9627 91.343C69.566 99.6365 79.0501 102.985 84.9177 99.5762C90.9782 96.055 92.948 85.3995 90.3907 72.4356C90.1892 71.42 89.9633 70.4094 89.7132 69.4047C90.4282 69.1921 91.13 68.9732 91.8141 68.7455C104.767 64.4384 113.195 57.4747 113.195 50.3529C113.195 43.5234 105.309 36.919 93.1056 32.7027ZM90.2962 64.1474C89.6783 64.3525 89.0445 64.5505 88.3983 64.7432C86.9683 60.1995 85.0386 55.3684 82.6769 50.3764C84.9305 45.5036 86.786 40.734 88.1759 36.22C89.3318 36.5558 90.4534 36.9097 91.5347 37.2832C101.991 40.8961 108.369 46.2372 108.369 50.3529C108.369 54.7367 101.481 60.4277 90.2962 64.1474ZM85.6557 73.3765C86.7865 79.1087 86.9476 84.2916 86.1986 88.3435C85.5259 91.9844 84.1727 94.4115 82.499 95.3839C78.9385 97.4526 71.3235 94.7637 63.111 87.6706C62.1401 86.8305 61.1927 85.9634 60.2699 85.0703C63.4539 81.5756 66.6357 77.5131 69.7412 73.0008C75.2036 72.5144 80.3641 71.7188 85.0439 70.6331C85.2694 71.5426 85.4734 72.4573 85.6557 73.3765ZM38.7257 95.0264C35.2468 96.2592 32.4759 96.2946 30.8009 95.3254C27.2369 93.2624 25.7552 85.298 27.7762 74.6151C28.0165 73.3527 28.2915 72.0972 28.6011 70.8502C33.2293 71.8779 38.3523 72.6168 43.8275 73.0624C46.9542 77.4776 50.2278 81.5358 53.5271 85.0894C52.8259 85.7703 52.1082 86.4338 51.3745 87.0793C46.9904 90.9252 42.5974 93.654 38.7257 95.0264ZM22.4277 64.1204C16.9181 62.2302 12.368 59.7738 9.24929 57.0933C6.44659 54.6848 5.032 52.2932 5.032 50.3529C5.032 46.2234 11.1657 40.9564 21.3962 37.3766C22.6378 36.9425 23.9372 36.5327 25.2856 36.1482C26.6997 40.7641 28.5544 45.5904 30.7925 50.4707C28.5252 55.4233 26.6441 60.3267 25.2163 64.997C24.2797 64.7278 23.3499 64.4355 22.4277 64.1204ZM27.891 26.7947C25.7676 15.9031 27.1777 7.68706 30.7268 5.62497C34.5067 3.42867 42.8653 6.56011 51.6755 14.4115C52.25 14.9247 52.8152 15.4482 53.3708 15.9819C50.0879 19.52 46.8443 23.548 43.7454 27.9371C38.4313 28.4315 33.3445 29.2253 28.6678 30.2889C28.3797 29.131 28.1206 27.9661 27.891 26.7951V26.7947ZM76.6301 38.8739C75.5255 36.9589 74.3798 35.0679 73.194 33.2024C76.7991 33.66 80.2533 34.2673 83.4969 35.0098C82.5233 38.1425 81.3095 41.4175 79.8808 44.7753C78.8365 42.7867 77.7527 40.8191 76.6301 38.8739ZM56.7544 19.4443C58.9806 21.8652 61.2104 24.5678 63.4036 27.5003C58.9546 27.2894 54.4982 27.2886 50.0491 27.4977C52.2444 24.5922 54.4932 21.8931 56.7544 19.4443ZM36.751 38.9071C35.6425 40.8367 34.5789 42.792 33.5613 44.7713C32.1559 41.4255 30.9532 38.1355 29.9712 34.9584C33.1949 34.2346 36.6327 33.6427 40.2149 33.1935C39.0159 35.0704 37.8609 36.9754 36.751 38.9067V38.9071ZM40.3177 67.8569C36.6169 67.4423 33.1274 66.881 29.9045 66.1767C30.902 62.9429 32.1312 59.5829 33.567 56.1653C34.5887 58.1461 35.6567 60.1026 36.77 62.033C37.9149 64.0176 39.1004 65.9614 40.3177 67.8569ZM56.8876 81.6027C54.5996 79.1255 52.3177 76.3848 50.0892 73.4372C52.2528 73.5222 54.4583 73.5656 56.7001 73.5656C59.0031 73.5656 61.2797 73.5138 63.5205 73.4137C61.3203 76.4145 59.0989 79.1592 56.8876 81.6027ZM79.9263 55.9907C81.4366 59.446 82.7095 62.7883 83.7203 65.9667C80.4444 66.7171 76.9073 67.3214 73.1804 67.7701C74.3746 65.8699 75.5311 63.9461 76.6491 61.9998C77.7858 60.0214 78.8784 58.0179 79.9263 55.9907ZM72.468 59.5794C70.7564 62.5634 68.9487 65.4909 67.0475 68.357C63.6038 68.6018 60.1524 68.7234 56.7001 68.7216C53.1837 68.7216 49.7635 68.6118 46.47 68.3974C44.5192 65.5378 42.677 62.6053 40.9471 59.6059H40.9476C39.2259 56.6225 37.6177 53.5745 36.1265 50.4685C37.6139 47.3618 39.2172 44.3124 40.933 41.3267L40.9326 41.3271C42.6477 38.3407 44.4753 35.4206 46.4113 32.5734C49.7714 32.3182 53.2172 32.1853 56.6996 32.1853H56.7001C60.1984 32.1853 63.6485 32.3195 67.0078 32.5765C68.9243 35.4195 70.7402 38.3295 72.4521 41.301C74.1736 44.2801 75.7981 47.3147 77.3231 50.3999C75.8138 53.5166 74.1944 56.5783 72.468 59.5794ZM82.4253 5.48056C86.2087 7.67067 87.6802 16.5024 85.303 28.0842C85.1512 28.8231 84.9808 29.5757 84.7954 30.339C80.1072 29.2528 75.0169 28.4452 69.6874 27.9433C66.5828 23.506 63.3656 19.4717 60.1361 15.9792C60.9825 15.1604 61.849 14.3628 62.7349 13.5871C71.0768 6.30141 78.8732 3.42468 82.4253 5.48056ZM56.7001 40.2263C62.2724 40.2263 66.7898 44.7603 66.7898 50.3529C66.7898 55.9456 62.2724 60.4795 56.7001 60.4795C51.1278 60.4795 46.6104 55.9456 46.6104 50.3529C46.6104 44.7603 51.1278 40.2263 56.7001 40.2263Z" fill="#00D8FF"/>
    </g>
    <g id="photoshop">
        <path d="M3.93411 4.42578H85.5995V85.2804H3.93411V4.42578Z" fill="url(#paint0_radial_6_7747)"/>
        <path d="M3.93406 4.42575H85.5994V85.2803H3.93406V4.42575ZM0.221191 89.0596H89.2944V0.646484H0.221191V89.0596ZM60.2876 36.9311C57.3602 36.9311 56.3605 38.4392 56.3605 39.6929C56.3605 41.0556 57.021 42.0004 60.9659 44.0717C66.7852 46.9425 68.6059 49.7043 68.6059 53.7379C68.6059 59.7884 64.0719 63.0408 57.9492 63.0408C54.7183 63.0408 51.9337 62.3685 50.345 61.4237C50.0772 61.3146 50.0415 61.1148 50.0415 60.8241V55.246C50.0415 54.8645 50.22 54.7554 50.4878 54.9371C52.8262 56.4815 55.5037 57.172 57.9492 57.172C60.8767 57.172 62.1084 55.9183 62.1084 54.2285C62.1084 52.8658 61.2515 51.6666 57.503 49.6861C52.2371 47.1242 50.0415 44.526 50.0415 40.1653C50.0415 35.2958 53.7901 31.244 60.2876 31.244C63.4828 31.244 65.7141 31.7346 66.928 32.2979C67.2314 32.4796 67.3028 32.7884 67.3028 33.061V38.2393C67.3028 38.5482 67.1243 38.7299 66.7495 38.6209C65.1072 37.567 62.6974 36.9311 60.2876 36.9311ZM28.3712 41.419C29.228 41.4917 29.8885 41.4917 31.3701 41.4917C35.7077 41.4917 39.7954 39.9472 39.7954 33.9331C39.7954 29.1364 36.868 26.7198 31.9234 26.7198C30.4418 26.7198 29.0317 26.7925 28.3533 26.8288L28.3712 41.419ZM21.7487 21.3598C21.7487 21.0872 22.2664 20.9055 22.5698 20.9055C24.9439 20.7965 28.4783 20.7239 32.1376 20.7239C42.4194 20.7239 46.4358 26.4654 46.4358 33.7878C46.4358 43.3813 39.5991 47.5058 31.2094 47.5058C29.7992 47.5058 29.3173 47.4331 28.3176 47.4331V61.9324C28.3176 62.2413 28.2105 62.3867 27.8714 62.3867H22.195C21.8915 62.3867 21.7487 62.2776 21.7487 61.9324V21.3598Z" fill="#31C5F0"/>
        <defs>
        <radialGradient id="paint0_radial_6_7747" cx="0" cy="0" r="1" gradientUnits="userSpaceOnUse" gradientTransform="translate(30.8385 22.5656) scale(62.0565 61.1565)">
        <stop stop-color="#34364E" stop-opacity="0.98"/>
        <stop offset="1" stop-color="#0C0824"/>
        </radialGradient>
        </defs>
    </g>
    <g id="illustrator">
        <path d="M4.00335 4.45367H85.7638V85.4586H4.00335V4.45367ZM0.287781 89.2423H89.4973V0.669922H0.287781V89.2423ZM58.7187 32.2496C58.7187 31.9404 58.8259 31.7949 59.1653 31.7949H65.0066C65.3103 31.7949 65.4532 31.904 65.4532 32.2496V62.1194C65.4532 62.4286 65.3818 62.5742 65.0066 62.5742H59.2368C58.8616 62.5742 58.7545 62.3923 58.7545 62.083V32.2496H58.7187ZM58.3079 23.6453C58.3079 21.2258 59.987 19.7888 62.0949 19.7888C64.3635 19.7888 65.8819 21.335 65.8819 23.6453C65.8819 26.1374 64.2921 27.5018 62.0235 27.5018C59.8799 27.52 58.3079 26.1556 58.3079 23.6453ZM41.5878 44.6923C40.5517 40.4902 38.0866 31.3401 37.1577 26.9015H37.0862C36.3003 31.3219 34.3353 38.8166 32.7812 44.6923H41.5878ZM31.2628 50.8227L28.3332 62.174C28.2618 62.4832 28.1546 62.556 27.7794 62.556H22.3133C21.9381 62.556 21.8667 62.4468 21.9381 61.9921L32.4954 24.3729C32.674 23.6998 32.799 23.0813 32.8705 21.2258C32.8705 20.953 32.9777 20.8438 33.1742 20.8438H40.9804C41.2484 20.8438 41.3556 20.9166 41.427 21.2258L53.2526 62.0648C53.324 62.3741 53.2526 62.556 52.9489 62.556H46.786C46.4823 62.556 46.3037 62.4832 46.2323 62.2104L43.1776 50.8227H31.2628Z" fill="#FF7F18"/>
    </g>
    <g id="figma">
        <path d="M15.0513 89.6605C23.0898 89.6605 29.6099 83.0208 29.6099 74.8348V60.0091H15.0513C7.01274 60.0091 0.492615 66.6488 0.492615 74.8348C0.492615 83.0208 7.01274 89.6605 15.0513 89.6605Z" fill="#0ACF83"/>
        <path d="M0.492615 45.1652C0.492615 36.9793 7.01274 30.3395 15.0513 30.3395H29.6099V60.0091H15.0513C7.01274 59.9909 0.492615 53.3512 0.492615 45.1652Z" fill="#A259FF"/>
        <path d="M0.492615 15.4956C0.492615 7.30965 7.01274 0.669922 15.0513 0.669922H29.6099V30.3395H15.0513C7.01274 30.3395 0.492615 23.6816 0.492615 15.4956Z" fill="#F24E1E"/>
        <path d="M29.6277 0.669922H44.1864C52.2249 0.669922 58.745 7.30965 58.745 15.4956C58.745 23.6816 52.2249 30.3213 44.1864 30.3213H29.6277V0.669922Z" fill="#FF7262"/>
        <path d="M58.7451 45.1652C58.7451 53.3512 52.225 59.9909 44.1865 59.9909C36.1479 59.9909 29.6278 53.3512 29.6278 45.1652C29.6278 36.9793 36.1479 30.3395 44.1865 30.3395C52.225 30.3395 58.7451 36.9793 58.7451 45.1652Z" fill="#1ABCFE"/>
    </g>
    <g id="ts">
        <path d="M0 60V120H60H120V60V0H60H0V60Z" fill="#007ACC"/>
        <path d="M26.5375 60.3979L26.4994 65.3122H34.309H42.1185L42.1185 87.5026V109.693H47.6423H53.1661V87.5026L53.1661 65.3122H60.9756H68.7852V60.4931C68.7852 57.8264 68.728 55.5979 68.6518 55.5407C68.5947 55.4645 59.0899 55.4264 47.5661 55.4455L26.5947 55.5026L26.5375 60.3979Z" fill="white"/>
        <path d="M96.8265 55.3636C99.8741 56.1255 102.198 57.4779 104.331 59.6874C105.436 60.8684 107.074 63.0208 107.207 63.535C107.246 63.6874 102.026 67.1922 98.8646 69.1541C98.7503 69.2303 98.2931 68.7351 97.7789 67.9731C96.236 65.7255 94.6169 64.7541 92.1408 64.5827C88.5027 64.335 86.1598 66.2398 86.1789 69.4208C86.1789 70.3541 86.3122 70.9065 86.6931 71.6684C87.4931 73.3255 88.9789 74.316 93.6455 76.3351C102.236 80.0303 105.912 82.4684 108.198 85.935C110.75 89.8017 111.322 95.9731 109.588 100.564C107.684 105.554 102.96 108.945 96.3122 110.068C94.255 110.43 89.3789 110.373 87.1693 109.973C82.3503 109.116 77.7789 106.735 74.9598 103.611C73.855 102.392 71.7027 99.2112 71.836 98.9827C71.8931 98.9065 72.3884 98.6017 72.9408 98.2779C73.4741 97.9731 75.4931 96.8112 77.3979 95.7065L80.8455 93.7065L81.5693 94.7731C82.5789 96.316 84.7884 98.4303 86.1217 99.135C89.9503 101.154 95.2074 100.868 97.7979 98.5446C98.9027 97.535 99.3598 96.4874 99.3598 94.9446C99.3598 93.5541 99.1884 92.9446 98.4646 91.897C97.5312 90.5636 95.6265 89.4398 90.2169 87.097C84.0265 84.4303 81.3598 82.7731 78.9217 80.1446C77.5122 78.6208 76.1789 76.1827 75.6265 74.1446C75.1693 72.4493 75.055 68.2017 75.4169 66.4874C76.6931 60.5065 81.2074 56.335 87.7217 55.097C89.836 54.697 94.7503 54.8493 96.8265 55.3636Z" fill="white"/>
    </g>
    <g id="docker">
        <path d="M117.523 49.7463C114.821 47.8713 108.628 47.1681 103.787 48.1056C103.224 43.4181 100.634 39.3171 96.1307 35.6842L93.5413 33.8092L91.7394 36.5046C89.488 40.0202 88.3621 44.9421 88.6996 49.6296C88.8121 51.2697 89.375 54.1994 91.0639 56.7775C89.488 57.715 86.2227 58.8869 81.9444 58.8869H0.541279L0.316279 59.8244C-0.472159 64.5114 -0.472159 79.1594 8.76034 90.4089C15.741 98.9632 26.0994 103.299 39.7227 103.299C69.2211 103.299 91.0639 89.1194 101.31 63.4567C105.363 63.5739 114.033 63.4567 118.424 54.6677C118.536 54.4333 118.761 53.9646 119.549 52.2072L120 51.2697L117.523 49.7463ZM65.6183 16.7008H53.2339V28.4191H65.6183V16.7008ZM65.6183 30.7628H53.2339V42.4811H65.6183V30.7624V30.7628ZM50.9816 30.7628H38.5972V42.4811H50.9816V30.7624V30.7628ZM36.3449 30.7628H23.96V42.4811H36.3449V30.7624V30.7628ZM21.7082 44.8249H9.32331V56.5432H21.7077V44.8244L21.7082 44.8249ZM36.3449 44.8249H23.96V56.5432H36.3449V44.8244V44.8249ZM50.9816 44.8249H38.5972V56.5432H50.9816V44.8244V44.8249ZM65.6188 44.8249H53.2335V56.5432H65.6188V44.8244V44.8249ZM80.2555 44.8249H67.8702V56.5432H80.2555V44.8244V44.8249Z" fill="#2396ED"/>
    </g>
    <g id="indesign">
        <path xmlns="http://www.w3.org/2000/svg" class="st0" d="M42.5,0h155C221,0,240,19,240,42.5v149c0,23.5-19,42.5-42.5,42.5h-155C19,234,0,215,0,191.5v-149   C0,19,19,0,42.5,0z"/>
    </g>
    <g id="nextjs">
        <path d="M119.616813,0.0688905149 C119.066276,0.118932037 117.314565,0.294077364 115.738025,0.419181169 C79.3775171,3.69690087 45.3192571,23.3131775 23.7481916,53.4631946 C11.7364614,70.2271045 4.05395894,89.2428829 1.15112414,109.384595 C0.12512219,116.415429 0,118.492153 0,128.025062 C0,137.557972 0.12512219,139.634696 1.15112414,146.665529 C8.10791789,194.730411 42.3163245,235.11392 88.7116325,250.076335 C97.0197458,252.753556 105.778299,254.580072 115.738025,255.680985 C119.616813,256.106338 136.383187,256.106338 140.261975,255.680985 C157.453763,253.779407 172.017986,249.525878 186.382014,242.194795 C188.584164,241.068861 189.00958,240.768612 188.709286,240.518404 C188.509091,240.36828 179.124927,227.782837 167.86393,212.570214 L147.393939,184.922273 L121.743891,146.965779 C107.630108,126.098464 96.0187683,109.034305 95.9186706,109.034305 C95.8185728,109.009284 95.7184751,125.873277 95.6684262,146.465363 C95.5933529,182.52028 95.5683284,183.971484 95.1178886,184.82219 C94.4672532,186.048207 93.9667644,186.548623 92.915738,187.099079 C92.114956,187.499411 91.4142717,187.574474 87.6355816,187.574474 L83.3063539,187.574474 L82.1552297,186.848872 C81.4044966,186.373477 80.8539589,185.747958 80.4785924,185.022356 L79.9530792,183.896422 L80.0031281,133.729796 L80.0782014,83.5381493 L80.8539589,82.5623397 C81.25435,82.0369037 82.1051808,81.3613431 82.7057674,81.0360732 C83.7317693,80.535658 84.1321603,80.4856165 88.4613881,80.4856165 C93.5663734,80.4856165 94.4172043,80.6857826 95.7434995,82.1369867 C96.1188661,82.5373189 110.007429,103.454675 126.623656,128.650581 C143.239883,153.846488 165.962072,188.250034 177.122972,205.139048 L197.392766,235.839522 L198.418768,235.163961 C207.502639,229.259062 217.112023,220.852086 224.719453,212.09482 C240.910264,193.504394 251.345455,170.835585 254.848876,146.665529 C255.874878,139.634696 256,137.557972 256,128.025062 C256,118.492153 255.874878,116.415429 254.848876,109.384595 C247.892082,61.3197135 213.683675,20.9362052 167.288368,5.97379012 C159.105376,3.32158945 150.396872,1.49507389 140.637341,0.394160408 C138.234995,0.143952798 121.693842,-0.131275573 119.616813,0.0688905149 L119.616813,0.0688905149 Z M172.017986,77.4831252 C173.219159,78.0836234 174.195112,79.2345784 174.545455,80.435575 C174.74565,81.0861148 174.795699,94.9976579 174.74565,126.348671 L174.670577,171.336 L166.73783,159.17591 L158.780059,147.01582 L158.780059,114.313685 C158.780059,93.1711423 158.880156,81.2862808 159.030303,80.7108033 C159.430694,79.3096407 160.306549,78.2087272 161.507722,77.5581875 C162.533724,77.0327515 162.909091,76.98271 166.837928,76.98271 C170.541544,76.98271 171.19218,77.0327515 172.017986,77.4831252 Z" fill="#000000"></path>
    </g>
    <g id="nodejs">
        <path xmlns="http://www.w3.org/2000/svg" fill="#689f63" d="M218.647 270.93c-1.46 0-2.91-.383-4.19-1.12l-13.337-7.896c-1.992-1.114-1.02-1.508-.363-1.735 2.656-.93 3.195-1.14 6.03-2.75.298-.17.688-.11.993.07l10.246 6.08c.37.2.895.2 1.238 0l39.95-23.06c.37-.21.61-.64.61-1.08v-46.1c0-.46-.24-.87-.618-1.1l-39.934-23.04c-.37-.22-.86-.22-1.23 0l-39.926 23.04c-.387.22-.633.65-.633 1.09v46.1c0 .44.24.86.62 1.07l10.94 6.32c5.94 2.97 9.57-.53 9.57-4.05v-45.5c0-.65.51-1.15 1.16-1.15h5.06c.63 0 1.15.5 1.15 1.15v45.52c0 7.92-4.32 12.47-11.83 12.47-2.31 0-4.13 0-9.21-2.5l-10.48-6.04c-2.59-1.5-4.19-4.3-4.19-7.29v-46.1c0-3 1.6-5.8 4.19-7.28l39.99-23.07c2.53-1.43 5.89-1.43 8.4 0l39.94 23.08c2.58 1.49 4.19 4.28 4.19 7.28v46.1c0 2.99-1.61 5.78-4.19 7.28l-39.94 23.07c-1.28.74-2.73 1.12-4.21 1.12"/>
    </g>
    <g id="linkedin">
        <path fill="#0A66C2" d="M12.225 12.225h-1.778V9.44c0-.664-.012-1.519-.925-1.519-.926 0-1.068.724-1.068 1.47v2.834H6.676V6.498h1.707v.783h.024c.348-.594.996-.95 1.684-.925 1.802 0 2.135 1.185 2.135 2.728l-.001 3.14zM4.67 5.715a1.037 1.037 0 01-1.032-1.031c0-.566.466-1.032 1.032-1.032.566 0 1.031.466 1.032 1.032 0 .566-.466 1.032-1.032 1.032zm.889 6.51h-1.78V6.498h1.78v5.727zM13.11 2H2.885A.88.88 0 002 2.866v10.268a.88.88 0 00.885.866h10.226a.882.882 0 00.889-.866V2.865a.88.88 0 00-.889-.864z"/>
    </g>
    <g id="telegram">
				<path d="M128,0 C57.307,0 0,57.307 0,128 L0,128 C0,198.693 57.307,256 128,256 L128,256 C198.693,256 256,198.693 256,128 L256,128 C256,57.307 198.693,0 128,0 L128,0 Z" fill="#40B3E0">

</path>
				<path d="M190.2826,73.6308 L167.4206,188.8978 C167.4206,188.8978 164.2236,196.8918 155.4306,193.0548 L102.6726,152.6068 L83.4886,143.3348 L51.1946,132.4628 C51.1946,132.4628 46.2386,130.7048 45.7586,126.8678 C45.2796,123.0308 51.3546,120.9528 51.3546,120.9528 L179.7306,70.5928 C179.7306,70.5928 190.2826,65.9568 190.2826,73.6308" fill="#FFFFFF">

</path>
				<path d="M98.6178,187.6035 C98.6178,187.6035 97.0778,187.4595 95.1588,181.3835 C93.2408,175.3085 83.4888,143.3345 83.4888,143.3345 L161.0258,94.0945 C161.0258,94.0945 165.5028,91.3765 165.3428,94.0945 C165.3428,94.0945 166.1418,94.5735 163.7438,96.8115 C161.3458,99.0505 102.8328,151.6475 102.8328,151.6475" fill="#D2E5F1">

</path>
				<path d="M122.9015,168.1154 L102.0335,187.1414 C102.0335,187.1414 100.4025,188.3794 98.6175,187.6034 L102.6135,152.2624" fill="#B5CFE4">

</path>
    </g>
    <g id="blanc">

    </g>
</svg>