<svg display="none" xmlns="http://www.w3.org/2000/svg">
    <symbol id="type1">
        <style type="text/css">
            .st0{display:none;fill-rule:evenodd;clip-rule:evenodd;fill:#F2F2F2;}
            .st1{display:none;}
            .st2{display:inline;}

                .st3{display:inline;clip-path:url(#SVGID_00000045617343073945780190000016888575307802188716_);fill:url(#SVGID_00000116935684587519274340000017979225823962736266_);}

                .st4{display:inline;clip-path:url(#SVGID_00000070084022686633186610000011260733386078640565_);fill:url(#SVGID_00000141435150772471869350000014561560974944431262_);}

                .st5{display:inline;clip-path:url(#SVGID_00000090991968096834987160000014338461934534407059_);fill:url(#SVGID_00000114776852950780378540000008313038961412915386_);}

                .st6{clip-path:url(#SVGID_00000145776929828410345500000014436281223696254086_);fill:url(#SVGID_00000103959806253247525550000006516878263606180761_);}
            .st7{display:none;fill-rule:evenodd;clip-rule:evenodd;fill:#332C2B;}
        </style>
        <g>
	        <defs>
		<path id="SVGID_00000069376788938899442900000009219403348110915470_" d="M4202.61,42c-125.87,52.38-263.2,104.15-413.54,154.65
			C2992.91,464.05,2301.73,336.59,1730.64,42h14.92c567.46,289.54,1252.83,413.12,2041.36,148.27
			C3931.17,141.82,4063.35,92.2,4184.98,42H4202.61z M4359.65,42c-166.5,75.64-355.18,150.59-570.58,222.94
			C2933.78,552.21,2199.59,383.84,1605.37,42h13.34c591.08,337.13,1320.04,501.45,2168.22,216.56
			c209.34-70.31,393.42-143.08,556.39-216.56H4359.65z M4503.73,42c-199.65,98.68-434.57,197.15-714.66,291.23
			C2878.57,639.04,2105.31,428.53,1492.08,42h12.73c610.39,381.94,1378.55,588.34,2282.11,284.85
			C4060.98,234.8,4291.8,138.54,4488.55,42H4503.73z M4636.41,42c-226.26,121.3-502.63,243.74-847.34,359.52
			C2826.16,724.94,2016.59,471.04,1387.64,42h11.92c626.39,424.67,1431.16,674.32,2387.36,353.14
			C4125.6,281.38,4398.2,161.21,4622.11,42H4636.41z M4758.95,42c-247.17,143.29-560.33,290.25-969.89,427.81
			C2776.18,810.02,1933.1,511.3,1291.31,42h11.31c639.47,465.11,1477.96,759.44,2484.3,421.43
			c403.5-135.53,713.25-280.16,958.51-421.43H4758.95z M4872.35,42C4609.27,206.43,4264,378.58,3789.07,538.1
			C2727.83,894.55,1852.99,549.66,1200.81,42h10.95c650.07,503.62,1520.4,843.99,2575.16,489.72
			C4255.75,374.26,4598.06,204.49,4859.63,42H4872.35z M4977.75,42c-274.69,184.47-647.51,382.63-1188.68,564.39
			C2680.82,978.63,1775.75,586.12,1115.36,42h10.64c658.44,540.21,1559.09,928.09,2660.92,558.01
			C4321.9,420.32,4692.13,224.62,4965.64,42H4977.75z M5076.06,42c-282.63,203.11-678.37,428.25-1286.99,632.68
			C2634.93,1062.33,1701.05,620.64,1034.5,42h10.24c664.77,574.9,1594.39,1011.83,2742.19,626.31
			C4389.26,465.99,4782.76,243.38,5064.48,42H5076.06z M5168.12,42c-287.54,219.99-701.28,473.32-1379.05,700.97
			C2589.94,1145.74,1628.68,653.2,957.89,42h9.88c669.19,607.64,1626.31,1095.24,2819.16,694.6
			C4458.24,511.12,4870.16,260.41,5157.01,42H5168.12z M5254.88,42c-290.12,234.65-716.71,517.66-1465.81,769.26
			C2545.57,1228.93,1557.94,683.82,884.69,42h9.66c671.77,638.4,1655.36,1178.44,2892.57,762.89
			C4529.38,555.51,4954.62,275.27,5244.19,42H5254.88z M5337.33,42c-291.15,246.52-724.9,561-1548.27,837.55
			C2501.67,1311.96,1488.51,712.44,814.58,42h9.49c672.61,667.18,1681.75,1261.48,2962.86,831.18
			c816.48-274.23,1249.32-585.8,1540-831.18H5337.33z M5416.62,42c-291.57,254.76-726.01,603.03-1627.55,905.85
			C2458.07,1394.9,1420.18,738.97,747.27,42h9.32c671.72,693.86,1705.63,1344.41,3030.34,899.47
			C4681.24,641.09,5115.29,295.93,5406.4,42H5416.62z M5494.26,42l-12.95,11.42c-292.38,257.97-721.61,636.7-1692.24,962.72
			C2414.65,1477.78,1352.7,763.32,682.52,42h9.17c669.12,718.36,1727.12,1427.28,3095.23,967.76
			c969.35-325.58,1397.97-703.77,1689.92-961.38l7.24-6.38H5494.26z M5572.46,42c-29.12,24.99-59.3,51.6-91.15,79.7
			c-292.38,257.98-721.61,636.71-1692.24,962.72C2371.26,1560.64,1285.86,785.32,620.14,42h9.04
			c664.8,740.55,1746.26,1510.13,3157.74,1036.05c969.35-325.58,1397.97-703.77,1689.92-961.38c29.7-26.2,57.97-51.14,85.28-74.67
			H5572.46z M5655.1,42c-54.29,42.55-110.85,92.46-173.8,147.99c-292.38,257.98-721.61,636.71-1692.24,962.72
			C2327.75,1643.54,1219.53,804.85,560.01,42h8.84c658.73,760.27,1763.13,1593.03,3218.07,1104.34
			c969.35-325.58,1397.97-703.77,1689.92-961.38C5537.29,131.63,5591.87,83.52,5644.2,42H5655.1z M5751.38,42
			c-84.88,52.93-169.31,127.38-270.07,216.29c-292.38,257.98-721.61,636.71-1692.24,962.72
			C2283.98,1726.53,1153.54,821.73,502.05,42h8.68c650.85,777.32,1777.54,1676,3276.2,1172.63
			c969.35-325.58,1397.97-703.77,1689.92-961.38c97.36-85.9,179.59-158.41,261.52-211.26H5751.38z M5900.35,42
			c-142.64,40.77-260.7,144.88-419.04,284.58c-292.38,257.98-721.61,636.71-1692.24,962.72C2239.78,1809.67,1087.55,835.7,445.97,42
			h8.58c641.06,791.5,1789.56,1759.12,3332.37,1240.92c969.35-325.59,1397.97-703.77,1689.92-961.38
			C5627.86,188.3,5742.49,87.27,5876.08,42H5900.35z M63.25,42C532,785.4,1848.13,2480.45,3786.92,1829.25
			c969.35-325.58,1397.97-703.77,1689.92-961.37C5925.83,471.72,6053,359.52,7314,1154.75c271.79,171.4,452.81,296.35,572.72,379.11
			c140.37,96.89,196.27,135.47,213.87,123.54c9.2-6.25,8.74-28.1,5.39-63.98c-0.52,0.45-1.05,0.87-1.61,1.25
			c-21.42,14.52-78.39-24.8-221.47-123.55c-120.01-82.83-301.18-207.88-572.47-378.97C6053.66,299.6,5927.35,411.07,5481.31,804.61
			c-292.38,257.97-721.61,636.7-1692.24,962.72C1900.35,2401.72,601.54,815.28,98.97,42h8
			c503.4,773.3,1798.59,2350.87,3679.96,1718.96c969.35-325.58,1397.97-703.77,1689.92-961.37
			C5925.83,403.43,6053,291.23,7314,1086.45c271.79,171.4,452.81,296.35,572.72,379.11c140.37,96.89,196.27,135.47,213.87,123.54
			c1.84-1.25,3.3-3.13,4.41-5.6l-1.59-15.74c-1.23-11.95-2.56-25.09-3.85-39.2c-24.64,6.8-83.18-33.6-216.67-125.74
			c-120.01-82.83-301.18-207.88-572.47-378.97C6053.66,231.31,5927.35,342.78,5481.31,736.32
			c-292.38,257.97-721.61,636.7-1692.24,962.72C1954.36,2315.28,676.36,835.94,144.09,42h8.1
			c532.8,793.47,1807.12,2264.52,3634.74,1650.66c969.35-325.58,1397.97-703.77,1689.92-961.37
			C5925.83,335.14,6053,222.94,7314,1018.16c271.79,171.4,452.81,296.35,572.72,379.11c136.25,94.05,192.93,133.15,212.22,124.46
			c-1.62-18.55-3.11-38.77-4.11-60.75c-27.09,1.13-86.33-39.75-211.94-126.45c-120.01-82.83-301.18-207.88-572.47-378.97
			C6053.66,163.02,5927.35,274.49,5481.31,668.03c-292.38,257.97-721.61,636.7-1692.24,962.72
			C2005.75,2229.73,748.45,848.9,190.62,42h8.15c558.16,806.05,1811.8,2179.01,3588.16,1582.37
			C4756.27,1298.79,5184.89,920.6,5476.85,663C5925.83,266.85,6053,154.65,7314,949.87c271.79,171.4,452.81,296.35,572.72,379.11
			c127.17,87.77,185.03,127.7,207.86,125.55c-0.79-19.37-1.21-39.94-0.99-61.83c-27.65-0.12-86.98-41.08-210.69-126.47
			c-120.01-82.83-301.18-207.88-572.47-378.97C6053.66,94.73,5927.35,206.19,5481.31,599.74
			c-292.38,257.98-721.61,636.7-1692.24,962.72C2055.2,2144.83,818.47,855.57,238.51,42h8.21
			c580.1,812.39,1813.19,2094.15,3540.2,1514.08c969.35-325.58,1397.97-703.77,1689.92-961.37
			C5925.83,198.56,6053,86.36,7314,881.58c271.79,171.4,452.81,296.35,572.72,379.11c125.56,86.66,183.53,126.67,206.96,125.61
			c0.08-5,0.2-10.08,0.35-15.21c-0.43-14.87-0.61-30.41-0.44-46.68c-27.65-0.12-86.97-41.07-210.69-126.47
			c-120.01-82.83-301.18-207.88-572.47-378.97C6053.66,26.44,5927.35,137.9,5481.31,531.45
			c-292.38,257.98-721.61,636.7-1692.24,962.72C2103,2060.48,887.03,856.93,287.96,42h8.33
			c599.02,813.43,1811.26,2009.86,3490.64,1445.79c969.35-325.58,1397.97-703.77,1689.92-961.37
			C5925.83,130.27,6053,18.07,7314,813.29c271.79,171.4,452.81,296.35,572.72,379.11c125.57,86.67,183.55,126.67,206.96,125.61
			c0.08-5,0.2-10.08,0.35-15.21c-0.44-14.85-0.61-30.44-0.44-46.68c-27.65-0.13-86.98-41.07-210.69-126.47
			c-120.01-82.83-301.18-207.88-572.47-378.97C6053.66-41.85,5927.35,69.61,5481.31,463.16
			c-292.38,257.98-721.61,636.7-1692.24,962.72C2149.48,1976.58,954.54,853.7,339.01,42h8.42
			c615.32,809.95,1806.51,1925.99,3439.49,1377.5c969.35-325.58,1397.97-703.77,1689.92-961.37C5925.83,61.98,6053-50.22,7314,745
			c271.79,171.4,452.81,296.35,572.72,379.11c125.57,86.67,183.54,126.66,206.96,125.61c0.08-5,0.2-10.08,0.35-15.21
			c-0.44-14.85-0.61-30.44-0.44-46.68c-27.65-0.12-86.98-41.08-210.69-126.47c-120.01-82.83-301.18-207.88-572.47-378.97
			C6053.66-110.14,5927.35,1.32,5481.31,394.87c-292.38,257.98-721.61,636.7-1692.24,962.72
			C2195.01,1892.99,1021.28,846.48,391.65,42h8.5c629.27,802.5,1799.25,1842.43,3386.77,1309.21
			c969.35-325.59,1397.97-703.77,1689.92-961.38C5925.83-6.31,6053-118.51,7314,676.71c271.79,171.4,452.81,296.35,572.72,379.11
			c125.57,86.67,183.54,126.66,206.96,125.61c0.08-5.01,0.2-10.08,0.35-15.21c-0.44-14.85-0.61-30.44-0.44-46.68
			c-27.65-0.12-86.98-41.08-210.69-126.47c-120.01-82.83-301.18-207.88-572.47-378.97C6764.08,269.57,6431.43,95.94,6193.22,42
			h29.79c237.02,61.33,565.53,235.05,1090.98,566.42c271.79,171.4,452.81,296.35,572.72,379.11
			c125.57,86.67,183.54,126.66,206.96,125.61c0.08-5.01,0.2-10.08,0.35-15.21c-0.44-14.84-0.61-30.42-0.44-46.68
			c-27.65-0.12-86.98-41.07-210.69-126.47c-120.01-82.83-301.18-207.88-572.47-378.97C6907.6,291.79,6621.03,130.76,6402.74,42
			h18.18c216.85,90.4,499.82,250.13,893.08,498.13c271.79,171.4,452.81,296.35,572.72,379.11
			c125.57,86.68,183.54,126.66,206.96,125.61c0.08-5.01,0.2-10.08,0.35-15.21c-0.44-14.84-0.61-30.42-0.44-46.68
			c-27.65-0.12-86.98-41.07-210.69-126.47c-120.01-82.83-301.18-207.88-572.47-378.97C6995.2,278.74,6751.12,136.85,6555.26,42h15.4
			c194.13,95.04,434.71,235.21,743.34,429.84c271.79,171.4,452.81,296.35,572.72,379.11c125.57,86.68,183.54,126.66,206.96,125.61
			c0.08-5,0.2-10.08,0.35-15.21c-0.44-14.84-0.61-30.42-0.44-46.68c-27.65-0.12-86.98-41.08-210.69-126.47
			c-120.01-82.83-301.18-207.88-572.47-378.97C7063.31,253.4,6860.06,132.66,6689.33,42h14.37
			c168.65,90.14,368.57,209.11,610.29,361.55c271.79,171.4,452.81,296.35,572.72,379.11c125.57,86.68,183.54,126.66,206.96,125.61
			c0.08-5.01,0.2-10.08,0.35-15.21c-0.44-14.84-0.61-30.42-0.44-46.68c-27.65-0.12-86.98-41.08-210.69-126.47
			c-120.01-82.83-301.18-207.88-572.47-378.97C7120.84,221.39,6957.14,122.55,6814.03,42h13.69
			c140.8,79.57,301.25,176.58,486.27,293.26c271.79,171.4,452.81,296.35,572.72,379.11c125.57,86.68,183.54,126.66,206.96,125.61
			c0.08-5.01,0.2-10.08,0.35-15.21c-0.44-14.84-0.61-30.42-0.44-46.68c-27.65-0.12-86.98-41.08-210.69-126.47
			c-120.01-82.83-301.18-207.88-572.47-378.97c-139.04-87.69-264.2-164.26-377.53-230.65h13.27
			c110.83,65.12,232.79,139.8,367.84,224.96c271.79,171.4,452.81,296.35,572.72,379.11c125.57,86.68,183.54,126.66,206.96,125.61
			c0.08-5.01,0.2-10.08,0.35-15.21c-0.44-14.84-0.61-30.42-0.44-46.68c-27.65-0.12-86.98-41.07-210.69-126.46
			c-120.01-82.83-301.18-207.88-572.47-378.97C7216.7,145.26,7129.4,91.3,7047.66,42h12.98c79.07,47.8,163.22,99.84,253.35,156.67
			c271.79,171.4,452.81,296.35,572.72,379.11c125.57,86.68,183.54,126.66,206.96,125.61c0.08-5.01,0.2-10.08,0.35-15.21
			c-0.44-14.84-0.61-30.42-0.44-46.68c-27.65-0.12-86.98-41.07-210.69-126.47c-120.01-82.83-301.18-207.88-572.47-378.97
			c-52.25-32.95-102.39-64.2-150.83-94.07h12.79c45.62,28.17,92.67,57.51,141.62,88.38c271.79,171.4,452.81,296.35,572.72,379.11
			c125.57,86.68,183.54,126.66,206.96,125.61c0.08-5,0.2-10.08,0.35-15.21c-0.44-14.84-0.61-30.42-0.44-46.68
			c-27.65-0.12-86.98-41.08-210.69-126.46c-120.01-82.83-301.18-207.88-572.47-378.97c-13.88-8.75-27.44-17.24-41.04-25.78h12.63
			L7314,62.09c271.79,171.4,452.81,296.35,572.72,379.11c125.57,86.68,183.54,126.66,206.96,125.61c0.08-5.01,0.2-10.08,0.35-15.21
			c-0.44-14.84-0.61-30.42-0.44-46.68c-27.65-0.12-86.98-41.08-210.69-126.47C7773.05,302.65,7611.96,191.47,7377.47,42h12.5
			c230.1,146.85,388.38,256.11,496.75,330.91c125.57,86.68,183.54,126.66,206.96,125.61c0.08-5.01,0.2-10.08,0.35-15.21
			c-0.44-14.84-0.61-30.42-0.44-46.68c-27.65-0.12-86.98-41.07-210.69-126.47c-92.41-63.78-221.07-152.59-399.21-268.17h12.34
			c173.9,112.99,299.85,199.92,390.69,262.62c125.57,86.68,183.54,126.66,206.96,125.61c0.08-5.01,0.2-10.08,0.35-15.21
			c-0.44-14.84-0.61-30.42-0.44-46.68c-27.65-0.12-86.98-41.08-210.69-126.47c-73.3-50.59-169.41-116.93-294.92-199.88h12.2
			c121.52,80.42,214.94,144.9,286.55,194.33c125.57,86.68,183.54,126.66,206.96,125.61c0.08-5,0.2-10.08,0.35-15.21
			c-0.44-14.84-0.61-30.42-0.44-46.68c-27.65-0.12-86.98-41.08-210.69-126.47c-51.94-35.85-115.35-79.62-192.54-131.59h12.05
			c73.53,49.57,134.25,91.49,184.32,126.04c125.57,86.68,183.54,126.66,206.96,125.61c0.08-5,0.2-10.08,0.35-15.21
			c-0.44-14.84-0.61-30.42-0.44-46.68c-27.65-0.12-86.98-41.08-210.69-126.47c-27.37-18.89-57.91-39.98-91.98-63.3h11.92
			c30.84,21.13,58.71,40.38,83.88,57.75c125.57,86.68,183.54,126.66,206.96,125.61c0.08-5,0.2-10.08,0.35-15.21
			c-0.44-14.84-0.61-30.42-0.44-46.68c-27.1-0.12-84.67-39.48-203.45-121.47h11.86c115.04,79.38,169.24,116.08,191.69,115.07
			c0.08-5,0.2-10.08,0.35-15.21c-0.44-14.84-0.61-30.42-0.44-46.68c-18.01-0.08-49.45-17.48-103.35-53.18h12.06
			c49.02,32.28,76.85,47.43,91.39,46.78c0.08-5,0.2-10.08,0.35-15.21c-0.29-10.18-0.47-20.71-0.5-31.57h24.27
			c-1.04,6.05-2.09,12.09-3.03,18.03c-0.12,8.89-0.99,16.14-2.94,21.7c0.53,5.38,1.02,10.51,1.44,15.38
			c3.28-17.89,7.12-36.3,11.45-55.11h6.92c-6.92,29.91-12.52,58.74-16.86,86.32c-0.12,8.89-0.99,16.14-2.94,21.7
			c0.53,5.38,1.02,10.51,1.44,15.38c7.15-38.98,16.66-80.14,29.07-123.4h7.02c-15.85,54.99-27.02,106.61-34.59,154.61
			c-0.12,8.89-0.99,16.14-2.94,21.7c0.53,5.38,1.02,10.51,1.44,15.38c10.82-58.96,27.08-123.01,50.67-191.69h7.08
			c-27.94,81.02-45.62,155.51-56.24,222.9c-0.12,8.89-0.99,16.14-2.94,21.7c0.53,5.38,1.02,10.51,1.44,15.38
			C8127.58,223.89,8151.3,137,8189.2,42h7.24c-43.22,107.87-68.12,205.27-81.67,291.19c-0.12,8.89-0.99,16.14-2.94,21.7
			c0.53,5.38,1.02,10.51,1.44,15.38c17.69-96.43,49.8-206.31,105.13-328.27h7.34c-61.69,135.35-94.61,255.8-110.97,359.48
			c-0.12,8.89-0.99,16.13-2.94,21.7c0.53,5.38,1.02,10.51,1.44,15.38c20.94-114.11,62.03-247.03,137.99-396.56h7.49
			c-83.38,163.42-124.91,306.96-143.97,427.78c-0.12,8.89-0.99,16.13-2.94,21.7c0.53,5.38,1.02,10.51,1.44,15.38
			c24.08-131.2,74.72-287.24,174.5-464.85h7.63c-108.3,191.98-158.96,358.69-180.63,496.07c-0.12,8.89-0.99,16.13-2.94,21.7
			c0.53,5.38,1.02,10.51,1.44,15.38c27.12-147.78,87.89-327.03,214.68-533.15h7.8c-136.46,220.94-196.77,410.94-220.97,564.36
			c-0.12,8.89-0.99,16.13-2.94,21.7c0.53,5.38,1.02,10.51,1.44,15.38c30.06-163.87,101.48-366.41,258.47-601.44h8
			c-167.85,250.26-238.3,463.64-264.96,632.65c-0.12,8.89-0.99,16.13-2.94,21.7c0.53,5.39,1.02,10.51,1.44,15.38
			c32.95-179.53,115.5-405.49,305.89-669.73h8.2c-202.44,279.88-283.52,516.76-312.58,700.94c-0.12,8.89-0.99,16.13-2.94,21.7
			c0.53,5.39,1.02,10.51,1.44,15.38C8149,585.21,8243.2,335.73,8470.16,42h8.4c-240.28,309.77-332.4,570.26-363.8,769.23
			c-0.12,8.89-0.99,16.14-2.94,21.7c0.53,5.39,1.02,10.51,1.44,15.38c38.49-209.73,144.74-482.84,411.46-806.31h8.63
			C8252,381.91,8148.43,666.1,8114.76,879.52c-0.12,8.89-0.99,16.14-2.94,21.7c0.53,5.39,1.02,10.51,1.44,15.38
			c41.17-224.32,159.9-521.17,469.6-874.6h8.79c-325.62,370.24-440.98,678.25-476.88,905.81c-0.12,8.89-0.99,16.14-2.94,21.7
			c0.53,5.39,1.02,10.51,1.44,15.38c43.79-238.63,175.33-559.32,531.19-942.89h8.99c-373.16,400.75-500.59,732.69-538.67,974.1
			c-0.12,8.89-0.99,16.14-2.94,21.7c0.53,5.39,1.02,10.51,1.44,15.38C8159.62,800.52,8304.3,455.9,8709.54,42h9.16
			c-423.91,431.42-563.71,787.38-603.94,1042.39c-0.12,8.89-0.99,16.14-2.94,21.7c0.53,5.39,1.02,10.51,1.44,15.38
			c48.9-266.44,206.97-635.11,664.79-1079.47h9.62c-477.85,462.19-630.58,842.35-672.9,1110.68c-0.12,8.89-0.99,16.14-2.94,21.7
			c0.53,5.39,1.02,10.52,1.44,15.38C8164.63,909.79,8336.71,516.92,8850.27,42h9.77C8325,535.09,8159.17,939.53,8114.76,1220.97
			c-0.13,8.89-1,16.14-2.94,21.7c3.16,32.12,4.65,54.99,0,68.29c3.17,32.12,4.66,54.99,0,68.29c3.17,32.12,4.66,54.99,0,68.29
			c3.17,32.11,4.65,54.98,0,68.29c3.17,32.12,4.65,54.99,0,68.29c4.3,43.52,5.49,70.05-7.46,78.83
			c-21.42,14.52-78.39-24.8-221.47-123.55c-120.01-82.83-301.18-207.88-572.47-378.97C6053.66,367.89,5927.35,479.36,5481.31,872.9
			c-292.38,257.97-721.61,636.7-1692.24,962.72C1842.75,2489.35,522.94,784.84,55.31,42H63.25z"/>
        </defs>
        <clipPath id="SVGID_00000011013088205287396940000007519517700094042755_">
            <use xlink:href="#SVGID_00000069376788938899442900000009219403348110915470_"  style="overflow:visible;"/>
        </clipPath>

                <linearGradient id="SVGID_00000174568829026827154690000001248536786911368884_" gradientUnits="userSpaceOnUse" x1="3208.2471" y1="2389.3521" x2="6734.9551" y2="-1008.9476">
                    <stop  offset="0" style="stop-color:#045304"/>
                    <stop  offset="1" style="stop-color:#B0F122"/>
                </linearGradient>

                <rect x="55.31" y="-118.51" style="clip-path:url(#SVGID_00000011013088205287396940000007519517700094042755_);fill:url(#SVGID_00000174568829026827154690000001248536786911368884_);" width="8804.73" height="2607.86"/>
            </g>
    </symbol>

</svg>